<svg xmlns="http://www.w3.org/2000/svg" viewBox="0 0 230 60">
  <path d="M13.5 6.2C6.1 6.2 0 12.3 0 19.7v20.6C0 47.7 6.1 53.8 13.5 53.8h20.6c7.4 0 13.5-6.1 13.5-13.5V19.7c0-7.4-6.1-13.5-13.5-13.5H13.5zm17.2 30.5l-6.2-9.3 6-9c.4-.6.3-1.1-.1-1.5-.2-.2-.5-.3-.8-.3-.4 0-.7.2-.9.5L24 24.4l-4.7-7.3c-.2-.3-.6-.5-1-.5-.3 0-.6.1-.8.3-.4.4-.5.9-.1 1.5l6 9-6.2 9.3c-.4.6-.3 1.1.1 1.5.2.2.5.3.8.3.4 0 .7-.2.9-.5l4.9-7.4 4.8 7.4c.2.3.6.5 1 .5.3 0 .6-.1.8-.3.4-.4.5-.9.1-1.5z" fill="#13B5EA"/>
  <path d="M68.5 17.6c-.5-.3-1.1-.2-1.5.2l-5.4 7L56 17.5c-.3-.4-.8-.5-1.3-.5-.5 0-.9.2-1.2.5-.6.5-.7 1.3-.2 2l6.4 8.4-6.6 8.6c-.5.7-.4 1.4.1 1.9.3.3.7.4 1.1.4.5 0 .9-.2 1.2-.6l5.6-7.3 5.5 7.3c.3.4.8.6 1.2.6.4 0 .8-.1 1.1-.4.6-.5.7-1.3.2-2L63.5 28l6.6-8.6c.5-.6.3-1.4-.2-1.9h-.1l1.4.1z" fill="#1A1A1A"/>
  <path d="M86.4 25.5c-.3-4.8-4.3-8.5-9.2-8.5-5.1 0-9.3 4.2-9.3 9.3s4.2 9.3 9.3 9.3c3.8 0 7.1-2.3 8.5-5.6h-2.8c-1.2 2-3.3 3.3-5.7 3.3-3.3 0-6-2.4-6.7-5.5h15.7c.1-.8.2-1.6.2-2.4zm-15.9.8c.6-3.3 3.3-5.7 6.7-5.7 3.2 0 5.9 2.5 6.5 5.7H70.5z" fill="#1A1A1A"/>
  <path d="M98.2 17.1h-.3c-2.7 0-5 1.2-6.3 3.3v-2.8h-2.3v18.5h2.5v-9.3c0-4 2.3-7.2 6-7.2h.5v-2.5z" fill="#1A1A1A"/>
  <path d="M108.5 17c-5.1 0-9.3 4.2-9.3 9.3s4.2 9.3 9.3 9.3 9.3-4.2 9.3-9.3-4.2-9.3-9.3-9.3zm0 16.3c-3.9 0-7-3.1-7-7s3.1-7 7-7 7 3.1 7 7-3.1 7-7 7z" fill="#1A1A1A"/>
</svg>